{
  "accessors": [
    {
      "bufferView": 2,
      "componentType": 5126,
      "count": 65532,
      "max": [
        0.09690018743276596,
        0.1274917870759964,
        0.10413818806409836
      ],
      "min": [
        -0.10502278059720993,
        0.046387869864702225,
        -0.09795445948839188
      ],
      "type": "VEC3"
    },
    {
      "bufferView": 2,
      "byteOffset": 786384,
      "componentType": 5126,
      "count": 65532,
      "max": [
        0.9999832510948181,
        0.9999984502792358,
        0.9999961853027344
      ],
      "min": [
        -0.9999976754188538,
        -0.998092770576477,
        -0.9999825954437256
      ],
      "type": "VEC3"
    },
    {
      "bufferView": 1,
      "componentType": 5126,
      "count": 65532,
      "max": [
        0.9977754950523376,
        0.9958118200302124
      ],
      "min": [
        0.002193763852119446,
        0.16463631391525269
      ],
      "type": "VEC2"
    },
    {
      "bufferView": 1,
      "byteOffset": 524256,
      "componentType": 5126,
      "count": 65532,
      "max": [
        0.9977754950523376,
        0.9958118200302124
      ],
      "min": [
        0.002193763852119446,
        0.16463631391525269
      ],
      "type": "VEC2"
    },
    {
      "bufferView": 1,
      "byteOffset": 1048512,
      "componentType": 5126,
      "count": 65532,
      "max": [
        0.9977754950523376,
        0.9958118200302124
      ],
      "min": [
        0.002193763852119446,
        0.16463631391525269
      ],
      "type": "VEC2"
    },
    {
      "bufferView": 1,
      "byteOffset": 1572768,
      "componentType": 5126,
      "count": 65532,
      "max": [
        0.9977754950523376,
        0.9958118200302124
      ],
      "min": [
        0.002193763852119446,
        0.16463631391525269
      ],
      "type": "VEC2"
    },
    {
      "bufferView": 1,
      "byteOffset": 2097024,
      "componentType": 5126,
      "count": 65532,
      "max": [
        0.9977754950523376,
        0.9958118200302124
      ],
      "min": [
        0.002193763852119446,
        0.16463631391525269
      ],
      "type": "VEC2"
    },
    {
      "bufferView": 1,
      "byteOffset": 2621280,
      "componentType": 5126,
      "count": 65532,
      "max": [
        0.9977754950523376,
        0.9958118200302124
      ],
      "min": [
        0.002193763852119446,
        0.16463631391525269
      ],
      "type": "VEC2"
    },
    {
      "bufferView": 1,
      "byteOffset": 3145536,
      "componentType": 5126,
      "count": 65532,
      "max": [
        0.9977754950523376,
        0.9958118200302124
      ],
      "min": [
        0.002193763852119446,
        0.16463631391525269
      ],
      "type": "VEC2"
    },
    {
      "bufferView": 1,
      "byteOffset": 3669792,
      "componentType": 5126,
      "count": 65532,
      "max": [
        0.9977754950523376,
        0.9958118200302124
      ],
      "min": [
        0.002193763852119446,
        0.16463631391525269
      ],
      "type": "VEC2"
    },
    {
      "bufferView": 1,
      "byteOffset": 4194048,
      "componentType": 5126,
      "count": 65532,
      "max": [
        0.9977754950523376,
        0.9958118200302124
      ],
      "min": [
        0.002193763852119446,
        0.16463631391525269
      ],
      "type": "VEC2"
    },
    {
      "bufferView": 1,
      "byteOffset": 4718304,
      "componentType": 5126,
      "count": 65532,
      "max": [
        0.9977754950523376,
        0.9958118200302124
      ],
      "min": [
        0.002193763852119446,
        0.16463631391525269
      ],
      "type": "VEC2"
    },
    {
      "bufferView": 0,
      "componentType": 5125,
      "count": 349020,
      "type": "SCALAR"
    },
    {
      "bufferView": 2,
      "byteOffset": 1572768,
      "componentType": 5126,
      "count": 5535,
      "max": [
        0.0782427117228508,
        0.11868305504322052,
        0.10364436358213425
      ],
      "min": [
        -0.09400365501642227,
        0.046387869864702225,
        -0.07039842754602432
      ],
      "type": "VEC3"
    },
    {
      "bufferView": 2,
      "byteOffset": 1639188,
      "componentType": 5126,
      "count": 5535,
      "max": [
        0.9379384517669678,
        0.9999434947967529,
        0.9999988079071045
      ],
      "min": [
        -0.999752938747406,
        -0.4523155689239502,
        -0.9997684359550476
      ],
      "type": "VEC3"
    },
    {
      "bufferView": 1,
      "byteOffset": 5242560,
      "componentType": 5126,
      "count": 5535,
      "max": [
        0.8203851580619812,
        0.9957781434059143
      ],
      "min": [
        0.23782449960708618,
        0.35334455966949463
      ],
      "type": "VEC2"
    },
    {
      "bufferView": 1,
      "byteOffset": 5286840,
      "componentType": 5126,
      "count": 5535,
      "max": [
        0.8203851580619812,
        0.9957781434059143
      ],
      "min": [
        0.23782449960708618,
        0.35334455966949463
      ],
      "type": "VEC2"
    },
    {
      "bufferView": 1,
      "byteOffset": 5331120,
      "componentType": 5126,
      "count": 5535,
      "max": [
        0.8203851580619812,
        0.9957781434059143
      ],
      "min": [
        0.23782449960708618,
        0.35334455966949463
      ],
      "type": "VEC2"
    },
    {
      "bufferView": 1,
      "byteOffset": 5375400,
      "componentType": 5126,
      "count": 5535,
      "max": [
        0.8203851580619812,
        0.9957781434059143
      ],
      "min": [
        0.23782449960708618,
        0.35334455966949463
      ],
      "type": "VEC2"
    },
    {
      "bufferView": 1,
      "byteOffset": 5419680,
      "componentType": 5126,
      "count": 5535,
      "max": [
        0.8203851580619812,
        0.9957781434059143
      ],
      "min": [
        0.23782449960708618,
        0.35334455966949463
      ],
      "type": "VEC2"
    },
    {
      "bufferView": 1,
      "byteOffset": 5463960,
      "componentType": 5126,
      "count": 5535,
      "max": [
        0.8203851580619812,
        0.9957781434059143
      ],
      "min": [
        0.23782449960708618,
        0.35334455966949463
      ],
      "type": "VEC2"
    },
    {
      "bufferView": 1,
      "byteOffset": 5508240,
      "componentType": 5126,
      "count": 5535,
      "max": [
        0.8203851580619812,
        0.9957781434059143
      ],
      "min": [
        0.23782449960708618,
        0.35334455966949463
      ],
      "type": "VEC2"
    },
    {
      "bufferView": 1,
      "byteOffset": 5552520,
      "componentType": 5126,
      "count": 5535,
      "max": [
        0.8203851580619812,
        0.9957781434059143
      ],
      "min": [
        0.23782449960708618,
        0.35334455966949463
      ],
      "type": "VEC2"
    },
    {
      "bufferView": 1,
      "byteOffset": 5596800,
      "componentType": 5126,
      "count": 5535,
      "max": [
        0.8203851580619812,
        0.9957781434059143
      ],
      "min": [
        0.23782449960708618,
        0.35334455966949463
      ],
      "type": "VEC2"
    },
    {
      "bufferView": 1,
      "byteOffset": 5641080,
      "componentType": 5126,
      "count": 5535,
      "max": [
        0.8203851580619812,
        0.9957781434059143
      ],
      "min": [
        0.23782449960708618,
        0.35334455966949463
      ],
      "type": "VEC2"
    },
    {
      "bufferView": 0,
      "byteOffset": 1396080,
      "componentType": 5125,
      "count": 28956,
      "type": "SCALAR"
    }
  ],
  "asset": {
    "extras": {
      "author": "JFN (https://sketchfab.com/db4)",
      "license": "CC-BY-4.0 (http://creativecommons.org/licenses/by/4.0/)",
      "source": "https://sketchfab.com/3d-models/vegan-beef-rendang-scaniverse-aeae284381714c0fa4140303eba0f7eb",
      "title": "Vegan Beef Rendang (Scaniverse)"
    },
    "generator": "Sketchfab-16.14.0",
    "version": "2.0"
  },
  "bufferViews": [
    {
      "buffer": 0,
      "byteLength": 1511904,
      "name": "floatBufferViews",
      "target": 34963
    },
    {
      "buffer": 0,
      "byteLength": 5685360,
      "byteOffset": 1511904,
      "byteStride": 8,
      "name": "floatBufferViews",
      "target": 34962
    },
    {
      "buffer": 0,
      "byteLength": 1705608,
      "byteOffset": 7197264,
      "byteStride": 12,
      "name": "floatBufferViews",
      "target": 34962
    }
  ],
  "buffers": [
    {
      "byteLength": 8902872,
      "uri": "scene.bin"
    }
  ],
  "extensionsUsed": [
    "KHR_materials_unlit"
  ],
  "images": [
    {
      "uri": "textures/main_baseColor.jpeg"
    }
  ],
  "materials": [
    {
      "doubleSided": true,
      "extensions": {
        "KHR_materials_unlit": {}
      },
      "name": "main",
      "pbrMetallicRoughness": {
        "baseColorTexture": {
          "index": 0
        },
        "metallicFactor": 0.0
      }
    }
  ],
  "meshes": [
    {
      "name": "mesh_main_0",
      "primitives": [
        {
          "attributes": {
            "NORMAL": 1,
            "POSITION": 0,
            "TEXCOORD_0": 2,
            "TEXCOORD_1": 3,
            "TEXCOORD_2": 4,
            "TEXCOORD_3": 5,
            "TEXCOORD_4": 6,
            "TEXCOORD_5": 7,
            "TEXCOORD_6": 8,
            "TEXCOORD_7": 9,
            "TEXCOORD_8": 10,
            "TEXCOORD_9": 11
          },
          "indices": 12,
          "material": 0,
          "mode": 4
        }
      ]
    },
    {
      "name": "mesh_main_0",
      "primitives": [
        {
          "attributes": {
            "NORMAL": 14,
            "POSITION": 13,
            "TEXCOORD_0": 15,
            "TEXCOORD_1": 16,
            "TEXCOORD_2": 17,
            "TEXCOORD_3": 18,
            "TEXCOORD_4": 19,
            "TEXCOORD_5": 20,
            "TEXCOORD_6": 21,
            "TEXCOORD_7": 22,
            "TEXCOORD_8": 23,
            "TEXCOORD_9": 24
          },
          "indices": 25,
          "material": 0,
          "mode": 4
        }
      ]
    }
  ],
  "nodes": [
    {
      "children": [
        1
      ],
      "matrix": [
        1.0,
        0.0,
        0.0,
        0.0,
        0.0,
        2.220446049250313e-16,
        -1.0,
        0.0,
        0.0,
        1.0,
        2.220446049250313e-16,
        0.0,
        0.0,
        0.0,
        0.0,
        1.0
      ],
      "name": "Sketchfab_model"
    },
    {
      "children": [
        2
      ],
      "matrix": [
        1.0,
        0.0,
        0.0,
        0.0,
        0.0,
        0.0,
        1.0,
        0.0,
        0.0,
        -1.0,
        0.0,
        0.0,
        0.0,
        0.0,
        0.0,
        1.0
      ],
      "name": "548d67614ed14946aa2a918e603dc209.fbx"
    },
    {
      "children": [
        3
      ],
      "name": "RootNode"
    },
    {
      "children": [
        4,
        5
      ],
      "name": "mesh"
    },
    {
      "mesh": 0,
      "name": "mesh_main_0"
    },
    {
      "mesh": 1,
      "name": "mesh_main_0"
    }
  ],
  "samplers": [
    {
      "magFilter": 9729,
      "minFilter": 9987,
      "wrapS": 10497,
      "wrapT": 10497
    }
  ],
  "scene": 0,
  "scenes": [
    {
      "name": "Sketchfab_Scene",
      "nodes": [
        0
      ]
    }
  ],
  "textures": [
    {
      "sampler": 0,
      "source": 0
    }
  ]
}
